<svg version="1.1" id="Layer_1" xmlns="http://www.w3.org/2000/svg" xmlns:xlink="http://www.w3.org/1999/xlink" x="0px" y="0px"
	 width="100%" viewBox="0 0 1085 460" enable-background="new 0 0 1085 460" xml:space="preserve">
<path fill="none" opacity="1.000000" stroke="none" 
	d="
M822.000000,461.000000 
	C548.000000,461.000000 274.500000,461.000000 1.000000,461.000000 
	C1.000000,307.666656 1.000000,154.333328 1.000000,1.000000 
	C362.666656,1.000000 724.333313,1.000000 1086.000000,1.000000 
	C1086.000000,154.333328 1086.000000,307.666656 1086.000000,461.000000 
	C998.166687,461.000000 910.333313,461.000000 822.000000,461.000000 
M578.621033,246.814011 
	C592.200806,254.599396 605.793701,262.361877 619.354614,270.179962 
	C625.972778,273.995453 632.555725,274.344513 639.232605,270.371552 
	C641.234985,269.180054 643.325439,268.137756 645.346130,266.976044 
	C687.070618,242.988800 728.801819,219.013290 770.507812,194.994064 
	C797.348755,179.535950 824.194336,164.085007 850.940979,148.464951 
	C857.607544,144.571625 862.255005,138.988892 861.379517,130.587753 
	C860.164246,118.926804 846.856812,109.938232 834.274475,117.302963 
	C814.729980,128.742798 795.033020,139.922089 775.409485,151.226974 
	C727.787292,178.661606 680.185181,206.131256 632.485413,233.430344 
	C630.894104,234.341110 627.879395,234.359894 626.295593,233.453506 
	C594.065613,215.008942 561.971191,196.327652 529.801025,177.778076 
	C495.755127,158.146927 461.596497,138.710342 427.628510,118.945801 
	C419.338287,114.122070 411.786194,113.583435 403.291016,118.520042 
	C350.019379,149.476608 296.620056,180.213409 243.258102,211.014496 
	C227.536102,220.089401 211.640869,228.879913 196.166351,238.358032 
	C191.682419,241.104431 187.274902,245.183853 184.808136,249.725372 
	C181.316132,256.154327 183.682983,262.741882 188.664154,268.018829 
	C193.990692,273.661652 200.734940,274.830719 207.451767,271.736969 
	C215.590729,267.988190 223.306625,263.292084 231.091217,258.807343 
	C291.407898,224.058914 351.707886,189.281479 411.959351,154.420242 
	C414.728607,152.817963 416.669861,153.260696 419.227600,154.740616 
	C472.126007,185.347916 525.074097,215.869278 578.621033,246.814011 
M124.249886,375.260254 
	C130.753983,379.788971 137.994278,381.740723 145.890900,381.810577 
	C167.876114,382.005096 189.860443,382.308960 211.844620,382.606598 
	C218.971420,382.703033 224.410995,387.261108 224.710205,393.252167 
	C225.035751,399.770538 219.930283,405.194824 212.633926,405.864288 
	C209.157043,406.183258 205.650497,406.277344 202.156464,406.295166 
	C176.338303,406.426788 150.519806,406.499939 124.701698,406.641388 
	C122.738792,406.652130 119.939072,405.688568 119.894188,409.219696 
	C119.812271,415.663666 119.870903,422.109436 119.870903,429.043640 
	C123.224937,429.043640 126.015732,429.058899 128.806320,429.041351 
	C161.119446,428.838074 193.436844,428.876862 225.743729,428.313660 
	C240.796982,428.051178 253.891098,416.167542 256.638000,401.655914 
	C259.549194,386.276459 252.138184,371.393829 237.394730,365.506500 
	C231.091537,362.989532 223.865891,362.031860 217.009491,361.792023 
	C196.539871,361.075928 176.044189,361.130127 155.562622,360.697357 
	C153.020432,360.643677 150.121124,360.046417 148.055450,358.686279 
	C144.292130,356.208374 142.594757,352.304901 144.213776,347.787720 
	C145.880661,343.137054 149.276321,340.448364 154.398880,340.406738 
	C177.051468,340.222717 199.704102,340.041229 222.356979,339.897675 
	C231.159286,339.841858 239.962219,339.888550 249.067719,339.888550 
	C249.067719,332.673004 249.067719,325.944336 249.067719,318.775177 
	C244.893250,318.775177 240.941254,318.753479 236.989563,318.778595 
	C205.509262,318.978577 174.025497,318.973572 142.550323,319.490326 
	C128.325378,319.723816 117.345413,328.063141 113.212326,340.395172 
	C108.979637,353.024353 112.781578,365.568298 124.249886,375.260254 
M336.789856,361.447449 
	C338.037903,358.906158 339.479614,356.439819 340.497528,353.809448 
	C343.503815,346.041107 349.502777,344.014099 357.221497,344.039886 
	C366.041077,344.069366 371.418457,348.024963 374.700897,356.102264 
	C384.042480,379.089874 393.738739,401.933197 403.134155,424.899261 
	C404.319763,427.797363 405.713226,428.979370 408.925690,428.890472 
	C416.748718,428.673981 424.582916,428.885620 432.412506,428.868134 
	C434.643555,428.863159 436.874146,428.663544 439.528015,428.532227 
	C438.977051,426.921082 438.712036,425.990784 438.346985,425.101562 
	C432.148346,410.002808 426.120697,394.830322 419.676880,379.836792 
	C413.366974,365.154816 406.843781,350.555267 400.010925,336.110321 
	C394.853546,325.207336 385.853210,319.527039 373.727081,319.304901 
	C363.407227,319.115875 353.077148,319.409821 342.760284,319.147644 
	C328.431763,318.783569 318.622803,325.236450 312.757263,338.115845 
	C311.929993,339.932343 310.833893,341.630005 310.055298,343.464630 
	C298.279297,371.212341 286.532379,398.972443 274.808411,426.742157 
	C274.583282,427.275360 274.718445,427.960663 274.663635,428.983185 
	C284.553986,428.983185 294.183563,428.855133 303.806824,429.046234 
	C307.658722,429.122742 309.614075,427.857513 311.116791,424.088196 
	C319.380402,403.359924 327.993927,382.771179 336.789856,361.447449 
M635.691650,383.662354 
	C628.071594,365.014526 620.566162,346.318726 612.785706,327.738037 
	C608.551758,317.626770 611.312988,319.164459 599.603943,318.936523 
	C593.113342,318.810181 586.616455,318.952454 580.123413,319.043671 
	C578.414856,319.067627 576.709961,319.352081 574.358765,319.579193 
	C578.406067,329.419830 581.972534,338.547394 585.888550,347.522400 
	C595.405090,369.333160 604.911560,391.151550 614.769043,412.808899 
	C619.837158,423.943848 629.154602,429.030365 641.271362,428.964020 
	C652.591064,428.902069 663.909607,428.634552 675.229309,428.556793 
	C686.069214,428.482361 693.990173,423.519379 699.326782,414.288788 
	C701.322083,410.837616 703.151672,407.263855 704.738831,403.607971 
	C712.694214,385.283234 720.610840,366.941010 728.404114,348.546875 
	C732.475830,338.936676 736.265564,329.207031 740.389771,319.019714 
	C734.674072,319.019714 729.705322,318.966461 724.738220,319.033112 
	C718.420593,319.117859 710.537537,317.050507 706.218506,320.058807 
	C701.706421,323.201630 700.581665,331.251129 698.051392,337.187775 
	C689.764648,356.630737 681.474121,376.072235 673.266235,395.548523 
	C670.222900,402.770111 664.236084,404.299225 657.340576,404.106018 
	C650.444763,403.912811 643.996643,402.871094 641.008179,395.238831 
	C639.554504,391.526276 637.665527,387.984161 635.691650,383.662354 
M815.162720,349.377686 
	C816.644897,352.172302 818.354248,354.871643 819.573181,357.776733 
	C828.982117,380.201508 838.367310,402.637085 847.554749,425.153015 
	C848.782349,428.161591 850.309998,429.119476 853.427063,429.058838 
	C862.089050,428.890259 870.757202,429.058868 879.422791,429.033386 
	C880.802185,429.029327 882.180664,428.710632 884.308594,428.443298 
	C882.034668,422.823608 880.141052,417.888367 878.056519,413.035065 
	C867.278809,387.940918 856.638733,362.784912 845.560730,337.823547 
	C840.338257,326.056000 831.085266,319.347260 817.807922,319.182983 
	C808.147156,319.063446 798.471313,319.404419 788.825745,318.990509 
	C773.040771,318.313171 762.431702,325.292145 756.301392,339.640472 
	C744.915405,366.289703 733.473206,392.914825 722.081299,419.561523 
	C720.870056,422.394867 719.837769,425.304718 718.399841,429.010590 
	C730.145081,429.010590 740.919739,429.107269 751.686768,428.865479 
	C752.801086,428.840424 754.303711,426.991028 754.885132,425.663574 
	C757.356689,420.019867 759.465332,414.218658 761.858643,408.539032 
	C769.554382,390.276245 776.951660,371.874542 785.191711,353.859253 
	C790.145386,343.028839 805.835205,340.753876 815.162720,349.377686 
M516.149719,367.658752 
	C531.876648,351.122284 547.603638,334.585785 562.634644,318.781067 
	C554.092468,318.781067 543.768372,319.143311 533.486084,318.645142 
	C527.318115,318.346344 522.925781,320.107300 518.673584,324.657440 
	C510.174988,333.751740 501.039764,342.251160 491.018219,352.128845 
	C485.873810,346.514526 481.266266,341.042389 476.198608,336.035950 
	C458.641022,318.690613 458.580139,318.756409 433.727020,318.892151 
	C429.024689,318.917847 424.322113,318.895844 418.299194,318.895844 
	C420.627167,321.351471 421.819580,322.684418 423.090179,323.938141 
	C439.339233,339.971710 455.674530,355.919525 471.753967,372.121277 
	C473.589783,373.971039 474.886047,377.209473 474.939178,379.834198 
	C475.239441,394.659760 475.076447,409.494568 475.094879,424.326202 
	C475.096680,425.771667 475.258850,427.216949 475.360474,428.892151 
	C486.475372,428.892151 497.219330,428.892151 508.530212,428.892151 
	C508.530212,426.888550 508.530609,425.101929 508.530151,423.315308 
	C508.526703,410.483429 508.968689,397.629883 508.345184,384.828186 
	C507.995483,377.648102 509.748901,372.207123 516.149719,367.658752 
M927.966492,375.500000 
	C927.966492,356.913330 927.966492,338.326660 927.966492,319.255463 
	C917.423462,319.255463 907.619751,319.135651 897.828857,319.435547 
	C896.818359,319.466522 895.044922,321.995239 895.037964,323.372101 
	C894.867004,357.203003 894.916748,391.035004 894.825684,424.866486 
	C894.817078,428.086578 895.872192,429.286957 899.155579,429.208771 
	C906.817688,429.026398 914.497437,428.899261 922.149109,429.232361 
	C926.616272,429.426849 928.214355,428.303711 928.113892,423.495270 
	C927.786804,407.835968 927.974792,392.165924 927.966492,375.500000 
M879.977234,110.529030 
	C905.501953,126.632912 931.616699,123.381470 949.837708,101.484520 
	C963.020508,85.642288 965.311157,67.715286 957.171326,49.079090 
	C948.955261,30.268547 933.931335,19.686295 913.372192,18.344847 
	C892.403442,16.976669 876.474609,26.374252 866.214722,44.325489 
	C853.040833,67.375076 858.289612,91.815155 879.977234,110.529030 
z"/>
<path fill="#14C5A8" opacity="1.000000" stroke="none" 
	d="
M578.316711,246.610840 
	C525.074097,215.869278 472.126007,185.347916 419.227600,154.740616 
	C416.669861,153.260696 414.728607,152.817963 411.959351,154.420242 
	C351.707886,189.281479 291.407898,224.058914 231.091217,258.807343 
	C223.306625,263.292084 215.590729,267.988190 207.451767,271.736969 
	C200.734940,274.830719 193.990692,273.661652 188.664154,268.018829 
	C183.682983,262.741882 181.316132,256.154327 184.808136,249.725372 
	C187.274902,245.183853 191.682419,241.104431 196.166351,238.358032 
	C211.640869,228.879913 227.536102,220.089401 243.258102,211.014496 
	C296.620056,180.213409 350.019379,149.476608 403.291016,118.520042 
	C411.786194,113.583435 419.338287,114.122070 427.628510,118.945801 
	C461.596497,138.710342 495.755127,158.146927 529.801025,177.778076 
	C561.971191,196.327652 594.065613,215.008942 626.295593,233.453506 
	C627.879395,234.359894 630.894104,234.341110 632.485413,233.430344 
	C680.185181,206.131256 727.787292,178.661606 775.409485,151.226974 
	C795.033020,139.922089 814.729980,128.742798 834.274475,117.302963 
	C846.856812,109.938232 860.164246,118.926804 861.379517,130.587753 
	C862.255005,138.988892 857.607544,144.571625 850.940979,148.464951 
	C824.194336,164.085007 797.348755,179.535950 770.507812,194.994064 
	C728.801819,219.013290 687.070618,242.988800 645.346130,266.976044 
	C643.325439,268.137756 641.234985,269.180054 639.232605,270.371552 
	C632.555725,274.344513 625.972778,273.995453 619.354614,270.179962 
	C605.793701,262.361877 592.200806,254.599396 578.316711,246.610840 
z"/>
<path fill="#ffffff" opacity="1.000000" stroke="none" 
	d="
M123.953888,375.059448 
	C112.781578,365.568298 108.979637,353.024353 113.212326,340.395172 
	C117.345413,328.063141 128.325378,319.723816 142.550323,319.490326 
	C174.025497,318.973572 205.509262,318.978577 236.989563,318.778595 
	C240.941254,318.753479 244.893250,318.775177 249.067719,318.775177 
	C249.067719,325.944336 249.067719,332.673004 249.067719,339.888550 
	C239.962219,339.888550 231.159286,339.841858 222.356979,339.897675 
	C199.704102,340.041229 177.051468,340.222717 154.398880,340.406738 
	C149.276321,340.448364 145.880661,343.137054 144.213776,347.787720 
	C142.594757,352.304901 144.292130,356.208374 148.055450,358.686279 
	C150.121124,360.046417 153.020432,360.643677 155.562622,360.697357 
	C176.044189,361.130127 196.539871,361.075928 217.009491,361.792023 
	C223.865891,362.031860 231.091537,362.989532 237.394730,365.506500 
	C252.138184,371.393829 259.549194,386.276459 256.638000,401.655914 
	C253.891098,416.167542 240.796982,428.051178 225.743729,428.313660 
	C193.436844,428.876862 161.119446,428.838074 128.806320,429.041351 
	C126.015732,429.058899 123.224937,429.043640 119.870903,429.043640 
	C119.870903,422.109436 119.812271,415.663666 119.894188,409.219696 
	C119.939072,405.688568 122.738792,406.652130 124.701698,406.641388 
	C150.519806,406.499939 176.338303,406.426788 202.156464,406.295166 
	C205.650497,406.277344 209.157043,406.183258 212.633926,405.864288 
	C219.930283,405.194824 225.035751,399.770538 224.710205,393.252167 
	C224.410995,387.261108 218.971420,382.703033 211.844620,382.606598 
	C189.860443,382.308960 167.876114,382.005096 145.890900,381.810577 
	C137.994278,381.740723 130.753983,379.788971 123.953888,375.059448 
z"/>
<path fill="#ffffff" opacity="1.000000" stroke="none" 
	d="
M336.638611,361.790985 
	C327.993927,382.771179 319.380402,403.359924 311.116791,424.088196 
	C309.614075,427.857513 307.658722,429.122742 303.806824,429.046234 
	C294.183563,428.855133 284.553986,428.983185 274.663635,428.983185 
	C274.718445,427.960663 274.583282,427.275360 274.808411,426.742157 
	C286.532379,398.972443 298.279297,371.212341 310.055298,343.464630 
	C310.833893,341.630005 311.929993,339.932343 312.757263,338.115845 
	C318.622803,325.236450 328.431763,318.783569 342.760284,319.147644 
	C353.077148,319.409821 363.407227,319.115875 373.727081,319.304901 
	C385.853210,319.527039 394.853546,325.207336 400.010925,336.110321 
	C406.843781,350.555267 413.366974,365.154816 419.676880,379.836792 
	C426.120697,394.830322 432.148346,410.002808 438.346985,425.101562 
	C438.712036,425.990784 438.977051,426.921082 439.528015,428.532227 
	C436.874146,428.663544 434.643555,428.863159 432.412506,428.868134 
	C424.582916,428.885620 416.748718,428.673981 408.925690,428.890472 
	C405.713226,428.979370 404.319763,427.797363 403.134155,424.899261 
	C393.738739,401.933197 384.042480,379.089874 374.700897,356.102264 
	C371.418457,348.024963 366.041077,344.069366 357.221497,344.039886 
	C349.502777,344.014099 343.503815,346.041107 340.497528,353.809448 
	C339.479614,356.439819 338.037903,358.906158 336.638611,361.790985 
z"/>
<path fill="#ffffff" opacity="1.000000" stroke="none" 
	d="
M635.832642,384.013611 
	C637.665527,387.984161 639.554504,391.526276 641.008179,395.238831 
	C643.996643,402.871094 650.444763,403.912811 657.340576,404.106018 
	C664.236084,404.299225 670.222900,402.770111 673.266235,395.548523 
	C681.474121,376.072235 689.764648,356.630737 698.051392,337.187775 
	C700.581665,331.251129 701.706421,323.201630 706.218506,320.058807 
	C710.537537,317.050507 718.420593,319.117859 724.738220,319.033112 
	C729.705322,318.966461 734.674072,319.019714 740.389771,319.019714 
	C736.265564,329.207031 732.475830,338.936676 728.404114,348.546875 
	C720.610840,366.941010 712.694214,385.283234 704.738831,403.607971 
	C703.151672,407.263855 701.322083,410.837616 699.326782,414.288788 
	C693.990173,423.519379 686.069214,428.482361 675.229309,428.556793 
	C663.909607,428.634552 652.591064,428.902069 641.271362,428.964020 
	C629.154602,429.030365 619.837158,423.943848 614.769043,412.808899 
	C604.911560,391.151550 595.405090,369.333160 585.888550,347.522400 
	C581.972534,338.547394 578.406067,329.419830 574.358765,319.579193 
	C576.709961,319.352081 578.414856,319.067627 580.123413,319.043671 
	C586.616455,318.952454 593.113342,318.810181 599.603943,318.936523 
	C611.312988,319.164459 608.551758,317.626770 612.785706,327.738037 
	C620.566162,346.318726 628.071594,365.014526 635.832642,384.013611 
z"/>
<path fill="#15C5A8" opacity="1.000000" stroke="none" 
	d="
M814.938232,349.076447 
	C805.835205,340.753876 790.145386,343.028839 785.191711,353.859253 
	C776.951660,371.874542 769.554382,390.276245 761.858643,408.539032 
	C759.465332,414.218658 757.356689,420.019867 754.885132,425.663574 
	C754.303711,426.991028 752.801086,428.840424 751.686768,428.865479 
	C740.919739,429.107269 730.145081,429.010590 718.399841,429.010590 
	C719.837769,425.304718 720.870056,422.394867 722.081299,419.561523 
	C733.473206,392.914825 744.915405,366.289703 756.301392,339.640472 
	C762.431702,325.292145 773.040771,318.313171 788.825745,318.990509 
	C798.471313,319.404419 808.147156,319.063446 817.807922,319.182983 
	C831.085266,319.347260 840.338257,326.056000 845.560730,337.823547 
	C856.638733,362.784912 867.278809,387.940918 878.056519,413.035065 
	C880.141052,417.888367 882.034668,422.823608 884.308594,428.443298 
	C882.180664,428.710632 880.802185,429.029327 879.422791,429.033386 
	C870.757202,429.058868 862.089050,428.890259 853.427063,429.058838 
	C850.309998,429.119476 848.782349,428.161591 847.554749,425.153015 
	C838.367310,402.637085 828.982117,380.201508 819.573181,357.776733 
	C818.354248,354.871643 816.644897,352.172302 814.938232,349.076447 
z"/>
<path fill="#ffffff" opacity="1.000000" stroke="none" 
	d="
M515.896729,367.908630 
	C509.748901,372.207123 507.995483,377.648102 508.345184,384.828186 
	C508.968689,397.629883 508.526703,410.483429 508.530151,423.315308 
	C508.530609,425.101929 508.530212,426.888550 508.530212,428.892151 
	C497.219330,428.892151 486.475372,428.892151 475.360474,428.892151 
	C475.258850,427.216949 475.096680,425.771667 475.094879,424.326202 
	C475.076447,409.494568 475.239441,394.659760 474.939178,379.834198 
	C474.886047,377.209473 473.589783,373.971039 471.753967,372.121277 
	C455.674530,355.919525 439.339233,339.971710 423.090179,323.938141 
	C421.819580,322.684418 420.627167,321.351471 418.299194,318.895844 
	C424.322113,318.895844 429.024689,318.917847 433.727020,318.892151 
	C458.580139,318.756409 458.641022,318.690613 476.198608,336.035950 
	C481.266266,341.042389 485.873810,346.514526 491.018219,352.128845 
	C501.039764,342.251160 510.174988,333.751740 518.673584,324.657440 
	C522.925781,320.107300 527.318115,318.346344 533.486084,318.645142 
	C543.768372,319.143311 554.092468,318.781067 562.634644,318.781067 
	C547.603638,334.585785 531.876648,351.122284 515.896729,367.908630 
z"/>
<path fill="#16C6A8" opacity="1.000000" stroke="none" 
	d="
M927.965454,376.000000 
	C927.974792,392.165924 927.786804,407.835968 928.113892,423.495270 
	C928.214355,428.303711 926.616272,429.426849 922.149109,429.232361 
	C914.497437,428.899261 906.817688,429.026398 899.155579,429.208771 
	C895.872192,429.286957 894.817078,428.086578 894.825684,424.866486 
	C894.916748,391.035004 894.867004,357.203003 895.037964,323.372101 
	C895.044922,321.995239 896.818359,319.466522 897.828857,319.435547 
	C907.619751,319.135651 917.423462,319.255463 927.966492,319.255463 
	C927.966492,338.326660 927.966492,356.913330 927.965454,376.000000 
z"/>
<path fill="#1FC1A6" opacity="1.000000" stroke="none" 
	d="
M879.684204,110.327454 
	C858.289612,91.815155 853.040833,67.375076 866.214722,44.325489 
	C876.474609,26.374252 892.403442,16.976669 913.372192,18.344847 
	C933.931335,19.686295 948.955261,30.268547 957.171326,49.079090 
	C965.311157,67.715286 963.020508,85.642288 949.837708,101.484520 
	C931.616699,123.381470 905.501953,126.632912 879.684204,110.327454 
M873.128906,85.220818 
	C881.950073,103.711449 899.836853,112.967384 918.914856,108.913849 
	C936.561401,105.164467 950.332153,88.786522 950.912537,70.858162 
	C951.443726,54.448406 941.985352,39.248466 927.036438,32.488209 
	C912.057556,25.714437 895.250854,28.349890 883.358704,39.337379 
	C870.510742,51.208031 866.654236,67.783829 873.128906,85.220818 
z"/>
<path fill="#000000" opacity="1.000000" stroke="none" 
	d="
M872.990051,84.860321 
	C866.654236,67.783829 870.510742,51.208031 883.358704,39.337379 
	C895.250854,28.349890 912.057556,25.714437 927.036438,32.488209 
	C941.985352,39.248466 951.443726,54.448406 950.912537,70.858162 
	C950.332153,88.786522 936.561401,105.164467 918.914856,108.913849 
	C899.836853,112.967384 881.950073,103.711449 872.990051,84.860321 
M891.917664,90.632378 
	C903.617859,99.742401 917.455994,99.978981 928.147705,91.251717 
	C938.489624,82.809906 941.779419,68.688675 935.767944,57.016659 
	C930.329712,46.457523 921.387390,40.848694 909.529419,41.137897 
	C897.336853,41.435261 888.697266,47.953175 884.276245,59.123028 
	C879.653015,70.803734 882.403809,81.320526 891.917664,90.632378 
z"/>
<path fill="#ffffff" opacity="1.000000" stroke="none" 
	d="
M891.646240,90.394035 
	C882.403809,81.320526 879.653015,70.803734 884.276245,59.123028 
	C888.697266,47.953175 897.336853,41.435261 909.529419,41.137897 
	C921.387390,40.848694 930.329712,46.457523 935.767944,57.016659 
	C941.779419,68.688675 938.489624,82.809906 928.147705,91.251717 
	C917.455994,99.978981 903.617859,99.742401 891.646240,90.394035 
z"/>
</svg>