<?xml version="1.0" encoding="UTF-8"?>
<svg version="1.1" xmlns="http://www.w3.org/2000/svg" width="373" height="159">
<path d="M0 0 C4.68064967 1.30497376 8.48127008 3.59674629 12.640625 6.0703125 C14.52734124 7.17057721 16.41406011 8.27083742 18.30078125 9.37109375 C19.29352051 9.95455566 20.28625977 10.53801758 21.30908203 11.13916016 C25.47287824 13.5796422 29.6558078 15.98628629 33.83886719 18.39355469 C37.10131034 20.27115613 40.36154826 22.15252942 43.62109375 24.03515625 C44.72114746 24.67050293 45.82120117 25.30584961 46.95458984 25.96044922 C49.31954008 27.32658859 51.68445049 28.69279672 54.04931641 30.05908203 C57.08133464 31.81078231 60.11365957 33.56195072 63.14614868 35.31283569 C64.86161336 36.30355759 66.57668414 37.29496143 68.29174805 38.28637695 C69.32468994 38.88281006 70.35763184 39.47924316 71.421875 40.09375 C72.33517578 40.62145996 73.24847656 41.14916992 74.18945312 41.69287109 C75.57051191 42.47867761 76.96940995 43.23470498 78.390625 43.9453125 C80.74425974 42.93094593 80.74425974 42.93094593 83.38671875 41.3671875 C84.41087891 40.7887207 85.43503906 40.21025391 86.49023438 39.61425781 C87.59173828 38.98100586 88.69324219 38.34775391 89.828125 37.6953125 C90.95669922 37.05432617 92.08527344 36.41333984 93.24804688 35.75292969 C96.63416287 33.82608213 100.01337518 31.88765019 103.390625 29.9453125 C104.30344238 29.42195313 105.21625977 28.89859375 106.15673828 28.359375 C113.78211866 23.9842779 121.37324265 19.55234733 128.94213867 15.08032227 C131.72295641 13.43992904 134.5100961 11.81041504 137.296875 10.18017578 C139.47282265 8.89683352 141.63452597 7.59125709 143.796875 6.28515625 C145.22353504 5.44199169 146.65060385 4.59951832 148.078125 3.7578125 C148.72547607 3.35868652 149.37282715 2.95956055 150.03979492 2.54833984 C153.15992543 0.73327376 155.0841179 -0.06940271 158.7265625 0.10546875 C161.390625 0.9453125 161.390625 0.9453125 163.328125 2.5703125 C164.87490033 6.0278103 164.31093112 8.32982419 163.390625 11.9453125 C161.19183526 14.66191915 158.58911192 16.05955063 155.51953125 17.66796875 C149.04988759 21.11667626 142.68886022 24.73784638 136.328125 28.3828125 C135.10728345 29.08142275 133.88641708 29.77998961 132.66552734 30.47851562 C125.38673738 34.64520425 118.11671077 38.82699132 110.8527832 43.01953125 C108.65032827 44.29050678 106.44705658 45.56006816 104.24291992 46.828125 C99.7642407 49.40666356 95.29238856 51.99068252 90.8671875 54.66015625 C90.22120605 55.04494141 89.57522461 55.42972656 88.90966797 55.82617188 C87.30908235 56.78219375 85.71654073 57.75165148 84.125 58.72265625 C80.80640955 60.20654027 78.99768082 60.46253372 75.390625 59.9453125 C72.61779181 58.8135049 70.09081213 57.34229071 67.515625 55.8203125 C66.74387939 55.37800293 65.97213379 54.93569336 65.17700195 54.47998047 C62.57327845 52.98224298 59.98170138 51.46481403 57.390625 49.9453125 C55.46514228 48.82500759 53.53935174 47.70523159 51.61328125 46.5859375 C47.55477041 44.2239305 43.50092441 41.85412686 39.44921875 39.48046875 C32.83365196 35.61106619 26.18721802 31.79670315 19.51635742 28.0234375 C15.83254192 25.93616841 12.17266304 23.83758204 8.59375 21.57421875 C7.53671875 20.91292969 6.4796875 20.25164063 5.390625 19.5703125 C4.524375 19.00570312 3.658125 18.44109375 2.765625 17.859375 C0.41673901 16.66786779 0.41673901 16.66786779 -1.91088867 17.70166016 C-4.7348084 19.00312104 -7.441714 20.41992738 -10.16015625 21.9296875 C-11.77833252 22.82723755 -11.77833252 22.82723755 -13.42919922 23.74291992 C-14.59356484 24.39346628 -15.75778651 25.04427036 -16.921875 25.6953125 C-17.51695862 26.02689362 -18.11204224 26.35847473 -18.72515869 26.70010376 C-27.19750033 31.42173244 -35.6134907 36.23308521 -43.984375 41.1328125 C-45.44170044 41.98431885 -45.44170044 41.98431885 -46.9284668 42.85302734 C-51.81747581 45.71330847 -56.69511121 48.59136889 -61.5625 51.48828125 C-63.4528788 52.59937731 -65.34349371 53.7100718 -67.234375 54.8203125 C-68.09337402 55.33875732 -68.95237305 55.85720215 -69.83740234 56.39135742 C-77.39960137 60.80301913 -77.39960137 60.80301913 -82.609375 59.9453125 C-85.65680795 57.8602268 -86.46500559 56.62384874 -87.234375 53.0078125 C-86.37318956 48.78800384 -83.98670832 47.31218442 -80.609375 44.9453125 C-76.71264341 42.52266607 -72.7295396 40.26347392 -68.734375 38.0078125 C-66.97964993 37.00849033 -65.22611031 36.0071083 -63.47257996 35.00569153 C-62.27620958 34.32269418 -61.07943955 33.64039641 -59.88227844 32.95878601 C-54.07442829 29.65007348 -48.31063438 26.26763342 -42.546875 22.8828125 C-32.94706375 17.25849407 -23.26661036 11.78939432 -13.54077148 6.38647461 C-12.54634033 5.83354736 -11.55190918 5.28062012 -10.52734375 4.7109375 C-9.64844482 4.22399414 -8.7695459 3.73705078 -7.86401367 3.23535156 C-2.13142391 -0.04467056 -2.13142391 -0.04467056 0 0 Z " fill="#1EC7AA" transform="translate(133.609375,42.0546875)"/>
<path d="M0 0 C1.125 7.75 1.125 7.75 0 10 C-12.21 10.33 -24.42 10.66 -37 11 C-37 12.32 -37 13.64 -37 15 C-36.0620459 15.03963867 -35.1240918 15.07927734 -34.15771484 15.12011719 C-30.6567097 15.27691093 -27.15732914 15.45029687 -23.65771484 15.63476562 C-22.146966 15.71103017 -20.63587349 15.78079026 -19.12451172 15.84375 C-16.94374295 15.93575343 -14.76530784 16.0515929 -12.5859375 16.171875 C-10.62213135 16.2661377 -10.62213135 16.2661377 -8.61865234 16.36230469 C-4.50917815 17.08649485 -2.24675674 18.4236668 1 21 C3.7533575 25.00704766 3.53703246 29.30935713 3 34 C1.23695947 38.26841392 -0.84168749 40.08283179 -5 42 C-8.30224609 42.40687357 -11.57171875 42.34921258 -14.89453125 42.29296875 C-15.84188644 42.28872391 -16.78924164 42.28447906 -17.76530457 42.28010559 C-20.78132947 42.26335689 -23.79667816 42.22571146 -26.8125 42.1875 C-28.86131845 42.17244825 -30.91014741 42.1587607 -32.95898438 42.14648438 C-37.9729155 42.11346579 -42.98634322 42.06170947 -48 42 C-48 39.03 -48 36.06 -48 33 C-46.95021973 32.97494385 -45.90043945 32.9498877 -44.81884766 32.92407227 C-40.93118676 32.83003733 -37.04370619 32.7298072 -33.15625 32.62768555 C-31.47237358 32.58432183 -29.78845277 32.5426478 -28.10449219 32.50268555 C-25.68671276 32.44501766 -23.26915705 32.3813135 -20.8515625 32.31640625 C-20.0963028 32.29969376 -19.34104309 32.28298126 -18.56289673 32.26576233 C-14.65260201 32.22444893 -14.65260201 32.22444893 -11 31 C-11.33 29.35 -11.66 27.7 -12 26 C-13.30819702 25.98598145 -13.30819702 25.98598145 -14.64282227 25.97167969 C-17.90678169 25.92742849 -21.16947213 25.86571326 -24.43286133 25.79248047 C-25.83996704 25.76441256 -27.24722627 25.74312797 -28.65454102 25.72900391 C-43.17783844 25.57455551 -43.17783844 25.57455551 -49 21 C-51.44217577 18.02691645 -51.36247602 14.74294371 -51.25 10.9609375 C-50.74856831 7.02783268 -49.01459894 4.80339222 -45.97338867 2.39526367 C-41.8280221 0.45004896 -38.14135841 0.52174092 -33.61328125 0.48828125 C-32.71506149 0.47033005 -31.81684174 0.45237885 -30.8914032 0.43388367 C-28.03181621 0.37987406 -25.17239423 0.34593077 -22.3125 0.3125 C-20.37693004 0.2793151 -18.44138199 0.24482436 -16.50585938 0.20898438 C-4.78506923 0 -4.78506923 0 0 0 Z " fill="#1B1B1B" transform="translate(72,117)"/>
<path d="M0 0 C5.58424807 5.68060966 8.401932 12.91330181 11.3125 20.1875 C11.97475586 21.78754883 11.97475586 21.78754883 12.65039062 23.41992188 C14.49681703 27.9412631 16.17146006 32.17021837 17 37 C17.66 37 18.32 37 19 37 C19 37.99 19 38.98 19 40 C14.05 40 9.1 40 4 40 C3.16855469 38.00195312 2.33710938 36.00390625 1.48046875 33.9453125 C0.66844939 32.01160044 -0.14669705 30.07923538 -0.9621582 28.14697266 C-1.52696767 26.80394883 -2.08851883 25.45954986 -2.64672852 24.11376953 C-3.44994896 22.17890072 -4.26478057 20.24928975 -5.08203125 18.3203125 C-5.56905518 17.15773926 -6.0560791 15.99516602 -6.55786133 14.79736328 C-7.83891838 11.75683695 -7.83891838 11.75683695 -11 10 C-14.05256961 9.86799881 -14.05256961 9.86799881 -17 11 C-18.81868442 13.47050642 -18.81868442 13.47050642 -19.95703125 16.6796875 C-20.42947266 17.83597656 -20.90191406 18.99226563 -21.38867188 20.18359375 C-21.85853516 21.40175781 -22.32839844 22.61992187 -22.8125 23.875 C-23.30169922 25.08542969 -23.79089844 26.29585937 -24.29492188 27.54296875 C-25.95374835 31.66823845 -27.59378792 35.78136376 -29 40 C-33.95 40 -38.9 40 -44 40 C-41.5947107 32.41284582 -38.69135937 25.09268758 -35.625 17.75 C-35.15578125 16.59242188 -34.6865625 15.43484375 -34.203125 14.2421875 C-29.73496722 3.55316916 -29.73496722 3.55316916 -25 0 C-17.18306975 -2.78229721 -7.66261229 -3.53659029 0 0 Z " fill="#17C5A8" transform="translate(288,119)"/>
<path d="M0 0 C0.85078125 -0.020625 1.7015625 -0.04125 2.578125 -0.0625 C7.3960208 -0.09251804 10.82589774 -0.03795032 14.625 3.25 C18.9921229 8.57617734 21.19353705 15.04073721 23.75 21.375 C24.62643083 23.52391642 25.50398942 25.67237331 26.3828125 27.8203125 C26.7658252 28.76664551 27.14883789 29.71297852 27.54345703 30.68798828 C28.55726448 33.20861243 28.55726448 33.20861243 29.76513672 35.33935547 C30.625 37.25 30.625 37.25 30.625 41.25 C26.005 41.25 21.385 41.25 16.625 41.25 C16.01011719 39.65929687 15.39523438 38.06859375 14.76171875 36.4296875 C13.94546403 34.32806614 13.12904937 32.2265069 12.3125 30.125 C11.70631836 28.55492187 11.70631836 28.55492187 11.08789062 26.953125 C9.13226004 21.92890332 7.16810473 17.00700497 4.625 12.25 C3.965 12.58 3.305 12.91 2.625 13.25 C1.965 12.59 1.305 11.93 0.625 11.25 C-0.695 11.25 -2.015 11.25 -3.375 11.25 C-8.56556304 20.94665623 -12.51394763 30.96909131 -16.375 41.25 C-21.325 41.25 -26.275 41.25 -31.375 41.25 C-29.8400046 37.33060464 -28.29720936 33.41457269 -26.75 29.5 C-26.32332031 28.40816406 -25.89664063 27.31632812 -25.45703125 26.19140625 C-17.08902859 5.08405625 -17.08902859 5.08405625 -12.375 1.25 C-8.23358936 -0.13047021 -4.33798777 0.02605398 0 0 Z " fill="#1A1A1A" transform="translate(111.375,117.75)"/>
<path d="M0 0 C4.62 0 9.24 0 14 0 C18.57368343 9.8007502 22.63393532 19.71736406 26 30 C28.97 30 31.94 30 35 30 C35.680625 28.2984375 35.680625 28.2984375 36.375 26.5625 C38 23 38 23 40 22 C40.13277344 21.33613281 40.26554687 20.67226562 40.40234375 19.98828125 C41.23684866 15.81575671 42.90830942 12.09532051 44.5625 8.1875 C44.89185547 7.39923828 45.22121094 6.61097656 45.56054688 5.79882812 C46.36958906 3.86416204 47.18423852 1.93184247 48 0 C52.62 0 57.24 0 62 0 C59.84250821 7.64287942 57.16925503 14.91819058 54.125 22.25 C53.70347656 23.29929688 53.28195313 24.34859375 52.84765625 25.4296875 C47.55172586 38.22413707 47.55172586 38.22413707 42 41 C38.40292849 41.32011789 34.79706201 41.32432332 31.1875 41.375 C29.68993164 41.43107422 29.68993164 41.43107422 28.16210938 41.48828125 C20.83967073 41.57609197 20.83967073 41.57609197 17.05078125 38.9765625 C14.61695266 35.44403414 12.74312454 31.91171197 11 28 C10.48735596 26.87984497 10.48735596 26.87984497 9.96435547 25.73706055 C6.15908237 17.32289957 2.92053034 8.76159102 0 0 Z " fill="#191919" transform="translate(191,118)"/>
<path d="M0 0 C13.73452915 -1.53363229 13.73452915 -1.53363229 19.2890625 2.2265625 C21.71999024 4.71353469 23.92713867 7.20960974 26 10 C29.48685324 8.56290213 30.94495716 6.84730144 33.1875 3.875 C36.08921786 0.80128739 38.16858342 -0.24446306 42.30078125 -0.5234375 C46.55254287 -0.58661111 50.76356622 -0.34661731 55 0 C52.03987582 3.68457742 49.06786282 7.06233722 45.38671875 10.04296875 C39.72145677 14.76577125 34.95786538 18.74268063 33.87109375 26.35546875 C33.51625477 31.26559108 33.65443015 36.0929082 34 41 C29.71 41 25.42 41 21 41 C21 34.4 21 27.8 21 21 C19.68 20.34 18.36 19.68 17 19 C15.25 17.5 15.25 17.5 14 16 C14 15.34 14 14.68 14 14 C13.401875 13.731875 12.80375 13.46375 12.1875 13.1875 C10.00152146 12.00082594 8.58667406 10.90400887 7 9 C7 8.34 7 7.68 7 7 C6.401875 6.731875 5.80375 6.46375 5.1875 6.1875 C3.00152146 5.00082594 1.58667406 3.90400887 0 2 C0 1.34 0 0.68 0 0 Z " fill="#1B1B1B" transform="translate(134,118)"/>
<path d="M0 0 C2.33911133 1.05639648 2.33911133 1.05639648 4.58203125 2.37109375 C5.42419189 2.85868164 6.26635254 3.34626953 7.1340332 3.84863281 C8.45987427 4.63512207 8.45987427 4.63512207 9.8125 5.4375 C10.72797607 5.97084961 11.64345215 6.50419922 12.58666992 7.05371094 C15.39647691 8.69351517 18.19858001 10.34591757 21 12 C22.71837143 13.00715659 24.43710391 14.01369752 26.15625 15.01953125 C30.1103352 17.33602109 34.05722921 19.66430878 38 22 C35.50907189 23.24546405 34.58919267 22.7767578 32 22 C32 21.34 32 20.68 32 20 C31.01 20 30.02 20 29 20 C29 19.34 29 18.68 29 18 C27.68 18 26.36 18 25 18 C25.495 19.485 25.495 19.485 26 21 C25.01 21.495 25.01 21.495 24 22 C23.505 23.485 23.505 23.485 23 25 C23.66 25.33 24.32 25.66 25 26 C25 26.99 25 27.98 25 29 C25.66 29.33 26.32 29.66 27 30 C27 30.66 27 31.32 27 32 C21.63952582 30.49263127 17.28118896 27.98708721 12.5625 25.125 C10.39578652 23.82689788 8.22867608 22.52987624 6.05517578 21.24316406 C4.71232827 20.43088329 3.3863461 19.58985616 2.08154297 18.71777344 C0.0924525 17.38045468 0.0924525 17.38045468 -3 16 C-7.05781324 17.20333082 -10.62418128 19.39096827 -14.2890625 21.4765625 C-15.48948016 22.15382873 -16.69000414 22.83090656 -17.890625 23.5078125 C-19.76607973 24.56978135 -21.64034079 25.63374576 -23.51269531 26.70117188 C-25.3308815 27.73606636 -27.15336233 28.76303424 -28.9765625 29.7890625 C-30.06018066 30.40475098 -31.14379883 31.02043945 -32.26025391 31.65478516 C-35 33 -35 33 -38 33 C-35.47211993 30.20127563 -33.79588866 28.54226981 -30 28 C-30 27.34 -30 26.68 -30 26 C-29.34 26 -28.68 26 -28 26 C-28 25.34 -28 24.68 -28 24 C-26.35 24 -24.7 24 -23 24 C-23 23.34 -23 22.68 -23 22 C-21 20 -21 20 -18.375 19.875 C-17.59125 19.91625 -16.8075 19.9575 -16 20 C-16 17.03 -16 14.06 -16 11 C-16.67546875 11.22816406 -17.3509375 11.45632812 -18.046875 11.69140625 C-18.93890625 11.97886719 -19.8309375 12.26632813 -20.75 12.5625 C-22.07257813 12.99755859 -22.07257813 12.99755859 -23.421875 13.44140625 C-26.13018796 14.02820739 -27.39972846 13.75639869 -30 13 C-26.1412686 10.61834843 -22.26074493 8.27477333 -18.375 5.9375 C-17.28058594 5.26138672 -16.18617187 4.58527344 -15.05859375 3.88867188 C-13.99511719 3.25380859 -12.93164062 2.61894531 -11.8359375 1.96484375 C-10.86188965 1.3730835 -9.8878418 0.78132324 -8.88427734 0.17163086 C-5.36037782 -1.25982282 -3.62635056 -1.03454173 0 0 Z " fill="#1EC7AB" transform="translate(137,43)"/>
<path d="M0 0 C4.29816086 3.05000498 7.47270301 7.12376235 8.7890625 12.26953125 C9.60354857 18.78541983 8.62392741 23.88189895 4.7890625 29.26953125 C1.38952181 32.85086556 -2.54376914 35.8794352 -7.5078125 36.60546875 C-14.57902459 36.71806767 -19.8002643 35.5390219 -25.00390625 30.55078125 C-29.73690211 25.2444296 -30.57214261 21.12158398 -30.48828125 14.05859375 C-29.94574734 8.60268938 -27.32852604 5.07203266 -23.2734375 1.45703125 C-15.82736859 -3.8615894 -8.07065162 -4.54978966 0 0 Z M-22.57421875 7.77734375 C-25.29107477 11.791942 -25.74854997 15.30648743 -24.953125 20.0546875 C-23.33664013 24.87861866 -20.06746552 28.09698724 -15.8359375 30.76953125 C-11.15272161 31.66157237 -7.28042543 31.48897999 -3.17578125 29.0703125 C0.00041831 26.5854418 1.57093313 25.01117109 2.7265625 21.08203125 C3.05947801 13.22943541 3.05947801 13.22943541 -0.5234375 6.51953125 C-4.09006844 3.53351465 -5.87769472 2.4204644 -10.5234375 1.89453125 C-15.63486152 2.41433708 -19.10231978 3.9373638 -22.57421875 7.77734375 Z " fill="#51CBB7" transform="translate(326.2109375,9.73046875)"/>
<path d="M0 0 C1.33417969 -0.00386719 1.33417969 -0.00386719 2.6953125 -0.0078125 C4.875 0.125 4.875 0.125 5.875 1.125 C5.96371273 4.15477804 5.9901935 7.16167022 5.97265625 10.19140625 C5.9712413 11.10002914 5.96982635 12.00865204 5.96836853 12.94480896 C5.96275193 15.85907221 5.95019665 18.77325981 5.9375 21.6875 C5.93248714 23.65820202 5.92792386 25.62890524 5.92382812 27.59960938 C5.91277711 32.44143559 5.89550138 37.28320495 5.875 42.125 C1.255 42.125 -3.365 42.125 -8.125 42.125 C-8.125 28.595 -8.125 15.065 -8.125 1.125 C-5.14619115 0.13206372 -3.10898802 -0.00906411 0 0 Z " fill="#0EC6A7" transform="translate(317.125,116.875)"/>
<path d="M0 0 C1.60407328 -0.02708567 3.2082785 -0.04643483 4.8125 -0.0625 C5.70582031 -0.07410156 6.59914063 -0.08570312 7.51953125 -0.09765625 C10.92350481 0.03635846 12.62948929 0.67183337 15.1875 2.9375 C17 5 17 5 17 7 C17.60755127 7.05833008 18.21510254 7.11666016 18.84106445 7.17675781 C21 8 21 8 22.35620117 10.23730469 C22.74783447 11.20571289 23.13946777 12.17412109 23.54296875 13.171875 C23.97673828 14.22890625 24.41050781 15.2859375 24.85742188 16.375 C25.51581055 18.045625 25.51581055 18.045625 26.1875 19.75 C26.63802734 20.84828125 27.08855469 21.9465625 27.55273438 23.078125 C29.42577689 27.70597217 31.15701326 32.06242591 32 37 C32.66 37 33.32 37 34 37 C34 37.99 34 38.98 34 40 C29.05 40 24.1 40 19 40 C17.6697443 37.04858986 16.36096139 34.09037507 15.0625 31.125 C14.68931641 30.30257812 14.31613281 29.48015625 13.93164062 28.6328125 C11.37487278 22.73612269 10.26607421 17.41829163 10 11 C9.34 11 8.68 11 8 11 C7.67 9.35 7.34 7.7 7 6 C3.7 6.33 0.4 6.66 -3 7 C-1.125 2.25 -1.125 2.25 0 0 Z " fill="#11C5A7" transform="translate(273,119)"/>
<path d="M0 0 C2.9375 1.4375 2.9375 1.4375 5 3 C5.66 3.33 6.32 3.66 7 4 C6.94014621 6.29240007 6.85140973 8.58406206 6.75 10.875 C6.68039062 12.78925781 6.68039062 12.78925781 6.609375 14.7421875 C6 18 6 18 4.140625 19.3828125 C3.43421875 19.58648437 2.7278125 19.79015625 2 20 C1.01 20.33 0.02 20.66 -1 21 C-8.03361345 21.56722689 -8.03361345 21.56722689 -11.875 19.3125 C-14.99949266 15.91231681 -16.06838161 13.64115861 -15.875 9 C-14.86530833 5.5382 -13.46052585 3.60964863 -11 1 C-7.55925853 -0.72037073 -3.76989884 -0.38481666 0 0 Z " fill="#1E1F1E" transform="translate(320,16)"/>
<path d="M0 0 C1.125 5.625 1.125 5.625 0 9 C-2.60242414 10.64820195 -3.86248779 11 -7 11 C-7 11.66 -7 12.32 -7 13 C-8.65 13 -10.3 13 -12 13 C-12 13.66 -12 14.32 -12 15 C-12.66 15 -13.32 15 -14 15 C-14 15.66 -14 16.32 -14 17 C-18.38461538 20 -18.38461538 20 -21 20 C-21.33 20.99 -21.66 21.98 -22 23 C-26.455 21.02 -26.455 21.02 -31 19 C-28.84589615 10.38358459 -28.84589615 10.38358459 -24.84765625 7.38671875 C-17.45443496 3.01158192 -8.68647152 0 0 0 Z M-29 21 C-28.67 21 -28.34 21 -28 21 C-28 22.65 -28 24.3 -28 26 C-28.99 25.34 -29.98 24.68 -31 24 C-30.34 24 -29.68 24 -29 24 C-29 23.01 -29 22.02 -29 21 Z " fill="#0FC6A8" transform="translate(121,54)"/>
<path d="M0 0 C-1.49097658 3.7952131 -3.75700849 5.61042731 -7 8 C-6.73323796 9.98491642 -6.73323796 9.98491642 -6 12 C-5.01 12.33 -4.02 12.66 -3 13 C-3 13.66 -3 14.32 -3 15 C-2.01 15 -1.02 15 0 15 C0 14.01 0 13.02 0 12 C1.32 12.33 2.64 12.66 4 13 C4 12.34 4 11.68 4 11 C5.32 11.33 6.64 11.66 8 12 C4.39124764 14.10392821 0.77994138 16.20338301 -2.83374023 18.29882812 C-4.06133057 19.01148691 -5.2882293 19.72533846 -6.5144043 20.44042969 C-8.28251176 21.47128731 -10.05310658 22.49775292 -11.82421875 23.5234375 C-12.88729248 24.14138184 -13.95036621 24.75932617 -15.0456543 25.39599609 C-17.65742018 26.81400302 -20.21676024 27.96950379 -23 29 C-21.86695008 25.60085025 -20.87481525 24.94745549 -18 23 C-18.66 22.236875 -19.32 21.47375 -20 20.6875 C-22 18 -22 18 -22 15 C-22.99 15.66 -23.98 16.32 -25 17 C-27.1875 16.625 -27.1875 16.625 -29 16 C-25.19472063 13.71576924 -21.38608989 11.4372676 -17.57421875 9.1640625 C-16.27737803 8.3895965 -14.98147383 7.6135601 -13.68652344 6.8359375 C-11.82729928 5.71983357 -9.96480363 4.60938145 -8.1015625 3.5 C-6.98088379 2.8296875 -5.86020508 2.159375 -4.70556641 1.46875 C-2 0 -2 0 0 0 Z " fill="#21C6AB" transform="translate(254,63)"/>
<path d="M0 0 C0 3.18470342 -0.46025618 6.05023907 -1 9.1875 C-1.185625 10.27417969 -1.37125 11.36085938 -1.5625 12.48046875 C-1.706875 13.31191406 -1.85125 14.14335937 -2 15 C-1.34 15 -0.68 15 0 15 C0.33 12.36 0.66 9.72 1 7 C1.33 7 1.66 7 2 7 C2.08636719 7.58007812 2.17273438 8.16015625 2.26171875 8.7578125 C3.31047473 14.5885109 4.68681845 17.88743154 9 22 C12.62094102 24.25085523 15.79899041 24.27771743 20 23.609375 C23.55784798 22.52534319 25.43791741 20.68706223 28 18 C28.94436349 15.83468832 28.94436349 15.83468832 29 14 C28.67 14 28.34 14 28 14 C28 11.69 28 9.38 28 7 C29.5 8.125 29.5 8.125 31 10 C31.1875 13.1875 31.1875 13.1875 31 16 C32.32 15.67 33.64 15.34 35 15 C33.38600741 21.16251715 30.55440464 25.21785723 25.3125 28.875 C19.36242371 30.89578063 13.55610498 31.0179911 7.75 28.4375 C2.74669915 25.59586869 -1.17457418 21.47627747 -3 16 C-3.90782977 4.72196097 -3.90782977 4.72196097 0 0 Z " fill="#63D2C0" transform="translate(299,16)"/>
<path d="M0 0 C1.33417969 -0.00386719 1.33417969 -0.00386719 2.6953125 -0.0078125 C4.875 0.125 4.875 0.125 5.875 1.125 C5.96371273 4.15477804 5.9901935 7.16167022 5.97265625 10.19140625 C5.9712413 11.10002914 5.96982635 12.00865204 5.96836853 12.94480896 C5.96275193 15.85907221 5.95019665 18.77325981 5.9375 21.6875 C5.93248714 23.65820202 5.92792386 25.62890524 5.92382812 27.59960938 C5.91277711 32.44143559 5.89550138 37.28320495 5.875 42.125 C1.255 42.125 -3.365 42.125 -8.125 42.125 C-8.125 28.595 -8.125 15.065 -8.125 1.125 C-5.14619115 0.13206372 -3.10898802 -0.00906411 0 0 Z M-6.125 3.125 C-6.125 15.335 -6.125 27.545 -6.125 40.125 C-3.155 40.125 -0.185 40.125 2.875 40.125 C2.8996826 35.17708706 2.91785166 30.2292098 2.92993164 25.28125 C2.93496653 23.59732438 2.94179481 21.91340314 2.95043945 20.22949219 C2.96254196 17.81183797 2.96823668 15.39424144 2.97265625 12.9765625 C2.97781754 12.2213028 2.98297882 11.46604309 2.98829651 10.68789673 C3.06820188 6.77851891 3.06820188 6.77851891 1.875 3.125 C-0.765 3.125 -3.405 3.125 -6.125 3.125 Z " fill="#6AD4C3" transform="translate(317.125,116.875)"/>
<path d="M0 0 C1.96982835 1.8798362 3.40023209 3.77002049 5 6 C4.67 6.66 4.34 7.32 4 8 C3.34 7.67 2.68 7.34 2 7 C2 6.34 2 5.68 2 5 C0.68 4.34 -0.64 3.68 -2 3 C-2 2.34 -2 1.68 -2 1 C-3.95825873 0.97305149 -5.91662226 0.95362782 -7.875 0.9375 C-8.96554687 0.92589844 -10.05609375 0.91429688 -11.1796875 0.90234375 C-13.95177546 0.80255697 -13.95177546 0.80255697 -16 2 C-16.72159424 3.64363134 -17.39351421 5.31050386 -18 7 C-14.7 6.67 -11.4 6.34 -8 6 C-7.67 7.65 -7.34 9.3 -7 11 C-6.34 11 -5.68 11 -5 11 C-3.64560332 13.70879335 -3.93498549 16.00933268 -4 19 C-6 16 -6 16 -7.25 13.375 C-8.84619064 10.73118255 -8.84619064 10.73118255 -12 10 C-14.93295732 9.6928921 -14.93295732 9.6928921 -16.55078125 11.20703125 C-18.21499243 13.26598794 -19.16281626 15.24945937 -20.1875 17.6875 C-20.53167969 18.49574219 -20.87585938 19.30398437 -21.23046875 20.13671875 C-21.61138672 21.05904297 -21.61138672 21.05904297 -22 22 C-22.33 22 -22.66 22 -23 22 C-23.19881516 17.72547397 -22.63295075 14.91908179 -21 11 C-21.33 10.34 -21.66 9.68 -22 9 C-21.34 9 -20.68 9 -20 9 C-20.33 8.01 -20.66 7.02 -21 6 C-20.5625 3.8125 -20.5625 3.8125 -20 2 C-22.31 2.33 -24.62 2.66 -27 3 C-27 2.34 -27 1.68 -27 1 C-19.3937113 -3.38824348 -7.95301593 -3.43071276 0 0 Z " fill="#2BC7AB" transform="translate(288,119)"/>
<path d="M0 0 C1.32 0.66 2.64 1.32 4 2 C3.67 2.66 3.34 3.32 3 4 C3.39938767 6.09821215 3.39938767 6.09821215 4 8 C3.34 8 2.68 8 2 8 C1.67 9.65 1.34 11.3 1 13 C-0.32 13 -1.64 13 -3 13 C-3 13.66 -3 14.32 -3 15 C-4.32 14.67 -5.64 14.34 -7 14 C-7 14.99 -7 15.98 -7 17 C-7.99 17 -8.98 17 -10 17 C-10 16.34 -10 15.68 -10 15 C-11.32 14.67 -12.64 14.34 -14 14 C-14.33 12.02 -14.66 10.04 -15 8 C-14.2575 7.7525 -13.515 7.505 -12.75 7.25 C-9.90228889 6.16536294 -9.90228889 6.16536294 -8 3.875 C-6 2 -6 2 -3.25 1.75 C-2.5075 1.8325 -1.765 1.915 -1 2 C-0.67 1.34 -0.34 0.68 0 0 Z " fill="#0FC4A6" transform="translate(261,61)"/>
<path d="M0 0 C3.875 6.75 3.875 6.75 5 9 C4.195625 9.2475 3.39125 9.495 2.5625 9.75 C-0.171081 10.72238859 -0.171081 10.72238859 -0.8125 13.125 C-0.874375 13.74375 -0.93625 14.3625 -1 15 C-3.64 15 -6.28 15 -9 15 C-9 15.66 -9 16.32 -9 17 C-10.9375 16.6875 -10.9375 16.6875 -13 16 C-14 13 -14 13 -13.0625 10.8125 C-12.5365625 9.9153125 -12.5365625 9.9153125 -12 9 C-11.34 9 -10.68 9 -10 9 C-9.79375 8.071875 -9.5875 7.14375 -9.375 6.1875 C-8 3 -8 3 -5 1.125 C-2 0 -2 0 0 0 Z " fill="#12C5A8" transform="translate(232,78)"/>
<path d="M0 0 C0.99 1.485 0.99 1.485 2 3 C0.02 3.99 -1.96 4.98 -4 6 C-4 6.99 -4 7.98 -4 9 C-7.21451269 10.60725635 -10.43612536 10.05748185 -14 10 C-15.33442623 3.5704918 -15.33442623 3.5704918 -13.9375 1.1875 C-8.8818837 -1.91110354 -5.45062069 -2.6014326 0 0 Z " fill="#0EC3A5" transform="translate(64,89)"/>
<path d="M0 0 C0 3.18470342 -0.46025618 6.05023907 -1 9.1875 C-1.185625 10.27417969 -1.37125 11.36085938 -1.5625 12.48046875 C-1.706875 13.31191406 -1.85125 14.14335937 -2 15 C-1.34 15 -0.68 15 0 15 C0.33 12.36 0.66 9.72 1 7 C1.33 7 1.66 7 2 7 C2.08636719 7.58007812 2.17273438 8.16015625 2.26171875 8.7578125 C3.52601409 15.78683062 5.98147832 18.98147832 11 24 C9.35 24 7.7 24 6 24 C6 24.66 6 25.32 6 26 C6.99 26 7.98 26 9 26 C9 26.66 9 27.32 9 28 C3.80644539 26.62523555 0.99572509 23.25658407 -2 19 C-3.85966547 13.4210036 -4.01385245 7.15443645 -1.5 1.8125 C-1.005 1.214375 -0.51 0.61625 0 0 Z " fill="#6CD7C6" transform="translate(299,16)"/>
<path d="M0 0 C2.6875 0.3125 2.6875 0.3125 5 1 C4.45028435 4.84800954 2.72962142 6.35309439 0 9 C-1.23512079 11.13309192 -1.23512079 11.13309192 -2 13 C-2.66 13 -3.32 13 -4 13 C-4 15.97 -4 18.94 -4 22 C-4.99 21.67 -5.98 21.34 -7 21 C-7.47971851 13.44443354 -6.48420059 7.21625337 -1.53125 1.22265625 C-1.0259375 0.81917969 -0.520625 0.41570313 0 0 Z " fill="#55CCB8" transform="translate(304,10)"/>
<path d="M0 0 C-0.99 0.495 -0.99 0.495 -2 1 C-1.01 2.485 -1.01 2.485 0 4 C0.07905064 6.33199388 0.08798769 8.66832622 0 11 C-0.99 11.495 -0.99 11.495 -2 12 C-3.9453125 11.22265625 -3.9453125 11.22265625 -6.125 10.0625 C-6.84945312 9.68222656 -7.57390625 9.30195312 -8.3203125 8.91015625 C-8.87460938 8.60980469 -9.42890625 8.30945313 -10 8 C-9.29599947 5.07992825 -8.66176973 2.53638538 -7 0 C-4.04680182 -1.23843794 -3.12561472 -1.04187157 0 0 Z M-8 10 C-7.67 10 -7.34 10 -7 10 C-7 11.65 -7 13.3 -7 15 C-7.99 14.34 -8.98 13.68 -10 13 C-9.34 13 -8.68 13 -8 13 C-8 12.01 -8 11.02 -8 10 Z " fill="#10C4A6" transform="translate(100,65)"/>
<path d="M0 0 C1.9375 1.625 1.9375 1.625 3 4 C2.87213096 7.64426778 2.76034026 10.05717808 0.4375 12.9375 C-0.036875 13.288125 -0.51125 13.63875 -1 14 C-1.66 13.67 -2.32 13.34 -3 13 C-2.67 12.34 -2.34 11.68 -2 11 C-1.34 11 -0.68 11 0 11 C-0.33 9.02 -0.66 7.04 -1 5 C-5.79300133 3.60848348 -10.15135782 4.31337311 -15 5 C-6.63009404 -1.97492163 -6.63009404 -1.97492163 0 0 Z " fill="#52CDB7" transform="translate(295,43)"/>
<path d="M0 0 C3 1 3 1 4.38671875 3.546875 C4.81597656 4.60390625 5.24523437 5.6609375 5.6875 6.75 C6.34298828 8.32007813 6.34298828 8.32007813 7.01171875 9.921875 C7.94974242 12.8434665 8.20805392 14.96353744 8 18 C10.43387753 19.21693876 12.41838846 19.31959896 15.125 19.5625 C16.03507812 19.64628906 16.94515625 19.73007813 17.8828125 19.81640625 C18.58148438 19.87699219 19.28015625 19.93757813 20 20 C19.649375 19.0925 19.29875 18.185 18.9375 17.25 C18.03531221 14.12241564 17.86618493 12.94791919 19 10 C20.76462683 13.08809695 21 14.23312136 21 18 C21.66 18 22.32 18 23 18 C23 18.99 23 19.98 23 21 C18.05 21 13.1 21 8 21 C6.6623345 17.87678992 5.32970264 14.75159811 4 11.625 C3.6184375 10.73554688 3.236875 9.84609375 2.84375 8.9296875 C2.30234375 7.65351563 2.30234375 7.65351563 1.75 6.3515625 C1.41484375 5.56604004 1.0796875 4.78051758 0.734375 3.97119141 C0 2 0 2 0 0 Z " fill="#63CEBB" transform="translate(284,138)"/>
<path d="M0 0 C1.32 0.33 2.64 0.66 4 1 C-0.53071124 4.91416084 -5.52804911 7.8225846 -10.6875 10.8125 C-11.55439453 11.32748047 -12.42128906 11.84246094 -13.31445312 12.37304688 C-14.55678711 13.09524414 -14.55678711 13.09524414 -15.82421875 13.83203125 C-16.57791748 14.27264893 -17.33161621 14.7132666 -18.1081543 15.16723633 C-18.73246338 15.44204834 -19.35677246 15.71686035 -20 16 C-20.66 15.67 -21.32 15.34 -22 15 C-19.47211993 12.20127563 -17.79588866 10.54226981 -14 10 C-14 9.34 -14 8.68 -14 8 C-13.34 8 -12.68 8 -12 8 C-12 7.34 -12 6.68 -12 6 C-10.35 6 -8.7 6 -7 6 C-7 5.34 -7 4.68 -7 4 C-5 2 -5 2 -2.375 1.875 C-1.59125 1.91625 -0.8075 1.9575 0 2 C0 1.34 0 0.68 0 0 Z " fill="#58CEBA" transform="translate(121,61)"/>
<path d="M0 0 C1.96982835 1.8798362 3.40023209 3.77002049 5 6 C4.67 6.66 4.34 7.32 4 8 C3.34 7.67 2.68 7.34 2 7 C2 6.34 2 5.68 2 5 C0.68 4.34 -0.64 3.68 -2 3 C-2 2.34 -2 1.68 -2 1 C-9.59 1 -17.18 1 -25 1 C-19.59283574 -4.40716426 -6.46164851 -2.78737779 0 0 Z " fill="#92E1D5" transform="translate(288,119)"/>
<path d="M0 0 C2.475 0.99 2.475 0.99 5 2 C5 4.97 5 7.94 5 11 C3.35 11.33 1.7 11.66 0 12 C0 8.04 0 4.08 0 0 Z " fill="#3EC3AE" transform="translate(330,20)"/>
<path d="M0 0 C4.86973221 1.65387131 9.00854632 4.3435912 13.3125 7.125 C11.4765625 7.7109375 11.4765625 7.7109375 9.3125 8.125 C6.6875 6.75 6.6875 6.75 4.3125 5.125 C1.78774538 3.86262269 0.00049534 4.02643596 -2.8125 4.0625 C-3.72257813 4.07152344 -4.63265625 4.08054688 -5.5703125 4.08984375 C-6.61832031 4.10724609 -6.61832031 4.10724609 -7.6875 4.125 C-3.61051999 0.16793116 -3.61051999 0.16793116 0 0 Z " fill="#70D4C3" transform="translate(133.6875,41.875)"/>
<path d="M0 0 C2.35661204 3.53491806 3.93506813 7.17771758 5.625 11.0625 C5.94984375 11.79533203 6.2746875 12.52816406 6.609375 13.28320312 C9 18.75251116 9 18.75251116 9 21 C8.01 20.67 7.02 20.34 6 20 C6 19.34 6 18.68 6 18 C5.34 18 4.68 18 4 18 C3.87882812 17.37351563 3.75765625 16.74703125 3.6328125 16.1015625 C3.46523438 15.28429687 3.29765625 14.46703125 3.125 13.625 C2.96257812 12.81289062 2.80015625 12.00078125 2.6328125 11.1640625 C2.13341068 8.81326077 2.13341068 8.81326077 0 7 C-0.125 3.375 -0.125 3.375 0 0 Z " fill="#6DD6C5" transform="translate(293,127)"/>
<path d="M0 0 C1.4783226 2.95664519 1.06032783 5.74229737 1 9 C4.63 9 8.26 9 12 9 C8 12 8 12 5 12.4375 C2 12 2 12 -0.375 10.375 C-2.44361448 7.35164037 -2.46879799 5.59411792 -2 2 C-1.34 1.34 -0.68 0.68 0 0 Z " fill="#5CCCBC" transform="translate(49,90)"/>
<path d="M0 0 C-0.56735936 3.2906843 -1.36849698 4.92249762 -4 7 C-6.48046875 7.51171875 -6.48046875 7.51171875 -9.1875 7.6875 C-10.08855469 7.75324219 -10.98960938 7.81898437 -11.91796875 7.88671875 C-12.60503906 7.92410156 -13.29210937 7.96148437 -14 8 C-11.72402354 5.50447597 -9.39278822 3.93377014 -6.4375 2.3125 C-5.65246094 1.87550781 -4.86742188 1.43851563 -4.05859375 0.98828125 C-2 0 -2 0 0 0 Z " fill="#50CFBA" transform="translate(107,57)"/>
<path d="M0 0 C4.51617599 -0.07654536 8.59085217 -0.10228696 13 1 C13 1.33 13 1.66 13 2 C11.02 2.33 9.04 2.66 7 3 C8.00836062 4.23267348 8.00836062 4.23267348 10.06640625 4.09765625 C10.89011719 4.08605469 11.71382813 4.07445312 12.5625 4.0625 C13.38878906 4.05347656 14.21507812 4.04445313 15.06640625 4.03515625 C16.02353516 4.01775391 16.02353516 4.01775391 17 4 C16.67 4.66 16.34 5.32 16 6 C14.39620659 6.05416188 12.79188594 6.09286638 11.1875 6.125 C10.29417969 6.14820313 9.40085937 6.17140625 8.48046875 6.1953125 C6 6 6 6 3 4 C3 3.34 3 2.68 3 2 C2.01 2 1.02 2 0 2 C0 1.34 0 0.68 0 0 Z " fill="#69D3C2" transform="translate(305,40)"/>
<path d="M0 0 C0.66 0.33 1.32 0.66 2 1 C0.94633868 4.05561782 0.02789701 4.98224736 -2.75 6.75 C-6.10772162 8.04143139 -8.44041206 8.25425628 -12 8 C-9.72254211 5.51017465 -7.37664762 3.89631003 -4.4375 2.25 C-3.65246094 1.80140625 -2.86742187 1.3528125 -2.05859375 0.890625 C-1.37925781 0.59671875 -0.69992188 0.3028125 0 0 Z " fill="#54D3BE" transform="translate(223,80)"/>
<path d="M0 0 C3.875 2.625 3.875 2.625 5 6 C5.66 6.33 6.32 6.66 7 7 C7.33 5.68 7.66 4.36 8 3 C9.65 4.65 11.3 6.3 13 8 C11.35 8 9.7 8 8 8 C8 8.66 8 9.32 8 10 C8.99 10 9.98 10 11 10 C11 10.66 11 11.32 11 12 C5.90025053 10.65006632 2.80502464 7.32802771 0 3 C0 2.01 0 1.02 0 0 Z " fill="#80DACF" transform="translate(297,32)"/>
<path d="M0 0 C1.5 1.125 1.5 1.125 3 3 C3.1875 6.1875 3.1875 6.1875 3 9 C4.32 8.67 5.64 8.34 7 8 C6.34 9.98 5.68 11.96 5 14 C4.67 13.34 4.34 12.68 4 12 C2.02 12.66 0.04 13.32 -2 14 C-1.484375 13.21625 -0.96875 12.4325 -0.4375 11.625 C0.036875 10.75875 0.51125 9.8925 1 9 C0.67 8.34 0.34 7.68 0 7 C-0.04022391 4.6670134 -0.04320247 2.33293334 0 0 Z " fill="#94E0D6" transform="translate(327,23)"/>
<path d="M0 0 C4.39383706 1.59623144 8.28995807 3.78024333 12.3125 6.125 C12.95767578 6.49753906 13.60285156 6.87007813 14.26757812 7.25390625 C15.84675945 8.16632213 17.42361864 9.08275509 19 10 C16 11 16 11 13 10 C13 9.34 13 8.68 13 8 C12.319375 7.9175 11.63875 7.835 10.9375 7.75 C7.04583545 6.75638352 4.37087879 5.20403613 1 3 C0.67 2.01 0.34 1.02 0 0 Z " fill="#71D5C6" transform="translate(175,66)"/>
<path d="M0 0 C3.02419525 0.58803797 6.01758453 1.22678118 9 2 C9 2.66 9 3.32 9 4 C10.32 4 11.64 4 13 4 C13.66 5.65 14.32 7.3 15 9 C11.32305352 7.62859834 8.04681411 5.96304199 4.6875 3.9375 C3.80449219 3.41027344 2.92148438 2.88304688 2.01171875 2.33984375 C1.34785156 1.89769531 0.68398437 1.45554687 0 1 C0 0.67 0 0.34 0 0 Z " fill="#61D3BF" transform="translate(178,83)"/>
<path d="M0 0 C1 4 1 4 -1 8 C2.63 8 6.26 8 10 8 C10 6.68 10 5.36 10 4 C10.99 4 11.98 4 13 4 C12.67 5.65 12.34 7.3 12 9 C7.05 9 2.1 9 -3 9 C-2.01 6.03 -1.02 3.06 0 0 Z " fill="#72CEBE" transform="translate(247,150)"/>
<path d="M0 0 C-1.56629373 3.35634371 -3.38341923 5.38341923 -6 8 C-8.625 8.125 -8.625 8.125 -11 8 C-11.33 7.34 -11.66 6.68 -12 6 C-10.37829621 4.99466333 -8.75252763 3.99588093 -7.125 3 C-5.76761719 2.1646875 -5.76761719 2.1646875 -4.3828125 1.3125 C-2 0 -2 0 0 0 Z " fill="#40C8B2" transform="translate(266,56)"/>
<path d="M0 0 C2.36574234 3.5486135 2.10865265 4.5764525 1.625 8.6875 C1.51414062 9.68136719 1.40328125 10.67523438 1.2890625 11.69921875 C1.19367188 12.45847656 1.09828125 13.21773437 1 14 C0.01 13.67 -0.98 13.34 -2 13 C-2.05447047 11.58376784 -2.09300508 10.16691809 -2.125 8.75 C-2.14820313 7.96109375 -2.17140625 7.1721875 -2.1953125 6.359375 C-1.9828378 3.79268059 -1.28654105 2.2083933 0 0 Z " fill="#24BA9D" transform="translate(299,18)"/>
<path d="M0 0 C0 3 0 3 -1 5 C-0.34 5 0.32 5 1 5 C-0.20381448 7.49361571 -1.45428722 9.68143083 -3 12 C-3.66 12 -4.32 12 -5 12 C-5 12.66 -5 13.32 -5 14 C-4.34 14.33 -3.68 14.66 -3 15 C-4.32 15.33 -5.64 15.66 -7 16 C-2.89320388 2.89320388 -2.89320388 2.89320388 0 0 Z " fill="#6DDAC7" transform="translate(260,122)"/>
<path d="M0 0 C0.66 0.33 1.32 0.66 2 1 C-0.93221395 5.71703983 -3.89584909 7.01364008 -8.9765625 8.6171875 C-11 9 -11 9 -13 8 C-10.880788 6.63594382 -8.75551882 5.28368225 -6.625 3.9375 C-6.02171875 3.54755859 -5.4184375 3.15761719 -4.796875 2.75585938 C-3.23507443 1.77539568 -1.62007786 0.88083925 0 0 Z " fill="#62D2C1" transform="translate(63,81)"/>
<path d="M0 0 C0.66 0.33 1.32 0.66 2 1 C0.33231076 4.72777594 -0.56855683 5.82742273 -4.4375 7.375 C-7.71651396 7.95026561 -8.96941691 7.91916586 -12 7 C-10.04754815 5.80285445 -8.08785003 4.61751926 -6.125 3.4375 C-5.03445312 2.77621094 -3.94390625 2.11492187 -2.8203125 1.43359375 C-1.88960937 0.96050781 -0.95890625 0.48742187 0 0 Z " fill="#60D3C1" transform="translate(77,73)"/>
<path d="M0 0 C1.65 0 3.3 0 5 0 C2.05949843 2.27034075 -0.96058433 4.30412051 -4.125 6.25 C-5.42824219 7.06210938 -5.42824219 7.06210938 -6.7578125 7.890625 C-7.49773437 8.25671875 -8.23765625 8.6228125 -9 9 C-9.66 8.67 -10.32 8.34 -11 8 C-10.67 6.68 -10.34 5.36 -10 4 C-7.69 4 -5.38 4 -3 4 C-3 3.34 -3 2.68 -3 2 C-2.01 2 -1.02 2 0 2 C0 1.34 0 0.68 0 0 Z " fill="#65D2BF" transform="translate(273,65)"/>
<path d="M0 0 C0 0.66 0 1.32 0 2 C-3.63266059 4.32490278 -6.76001646 4.39259107 -11 4 C-11.66 3.01 -12.32 2.02 -13 1 C-8.61414671 0.29826347 -4.44209357 -0.10834375 0 0 Z " fill="#22B89E" transform="translate(324,41)"/>
<path d="M0 0 C5.41764853 0.75595096 10.44441733 1.50873768 14 6 C14 6.66 14 7.32 14 8 C8.76481294 6.56032356 4.36973991 4.18303389 0 1 C0 0.67 0 0.34 0 0 Z " fill="#5ED0BC" transform="translate(150,67)"/>
<path d="M0 0 C2.79872437 2.52788007 4.45773019 4.20411134 5 8 C3.68 7.67 2.36 7.34 1 7 C1 8.65 1 10.3 1 12 C0.731875 11.443125 0.46375 10.88625 0.1875 10.3125 C-1.10122647 7.80287477 -2.52926478 5.40665764 -4 3 C-2.02 3.66 -0.04 4.32 2 5 C1.34 3.35 0.68 1.7 0 0 Z " fill="#82DBCD" transform="translate(329,13)"/>
<path d="M0 0 C-0.33 2.64 -0.66 5.28 -1 8 C-1.99 8.33 -2.98 8.66 -4 9 C-4.66 6.69 -5.32 4.38 -6 2 C-3 0 -3 0 0 0 Z " fill="#0FC6A7" transform="translate(177,70)"/>
<path d="M0 0 C2.31625061 1.11777771 4.62784605 2.24374092 6.9375 3.375 C7.59685547 3.69210938 8.25621094 4.00921875 8.93554688 4.3359375 C13.88671875 6.7734375 13.88671875 6.7734375 15 9 C12.03 8.505 12.03 8.505 9 8 C9 7.34 9 6.68 9 6 C8.01 6 7.02 6 6 6 C6 5.34 6 4.68 6 4 C4.02 4 2.04 4 0 4 C0 2.68 0 1.36 0 0 Z " fill="#77DACC" transform="translate(160,57)"/>
<path d="M0 0 C1.17578125 2.05859375 1.17578125 2.05859375 2 4 C0.58297487 3.85769192 -0.8336096 3.71099254 -2.25 3.5625 C-3.43335938 3.44068359 -3.43335938 3.44068359 -4.640625 3.31640625 C-6.82364639 3.02365007 -8.8773182 2.57935581 -11 2 C-7.04239368 -0.91000465 -4.72770025 -1.57590008 0 0 Z " fill="#74D3C4" transform="translate(295,43)"/>
<path d="M0 0 C0.66 0.99 1.32 1.98 2 3 C1.1015625 5.69921875 1.1015625 5.69921875 -0.375 8.6875 C-0.85710937 9.68136719 -1.33921875 10.67523438 -1.8359375 11.69921875 C-2.22007812 12.45847656 -2.60421875 13.21773437 -3 14 C-3.33 14 -3.66 14 -4 14 C-4.19622241 9.78121808 -3.80230168 6.82989106 -2 3 C-1.34 3 -0.68 3 0 3 C0 2.01 0 1.02 0 0 Z " fill="#65D6C1" transform="translate(269,127)"/>
<path d="M0 0 C3.01657791 0.14030595 5.23841273 0.29351465 7.51171875 2.40234375 C8.73256066 3.88904235 9.87246522 5.44134898 11 7 C10.67 7.66 10.34 8.32 10 9 C9.34 8.67 8.68 8.34 8 8 C8 7.34 8 6.68 8 6 C6.68 5.34 5.36 4.68 4 4 C4 3.34 4 2.68 4 2 C2.68 1.67 1.36 1.34 0 1 C0 0.67 0 0.34 0 0 Z " fill="#7BD7CA" transform="translate(282,118)"/>
<path d="M0 0 C3.96 1.98 7.92 3.96 12 6 C12 6.33 12 6.66 12 7 C9.69 7 7.38 7 5 7 C5 6.34 5 5.68 5 5 C4.01 5 3.02 5 2 5 C2 4.01 2 3.02 2 2 C1.34 2 0.68 2 0 2 C0 1.34 0 0.68 0 0 Z " fill="#64D7C6" transform="translate(148,50)"/>
<path d="M0 0 C2.31 0.33 4.62 0.66 7 1 C3.81404865 3.63978826 0.69029454 6.10498388 -3 8 C-3.66 7.67 -4.32 7.34 -5 7 C-4.175 6.21625 -3.35 5.4325 -2.5 4.625 C0.22988506 2.36278736 0.22988506 2.36278736 0 0 Z " fill="#66D7C4" transform="translate(236,84)"/>
<path d="M0 0 C0.33 0 0.66 0 1 0 C1.49230769 7.38461538 1.49230769 7.38461538 -1 10.5 C-1.66 10.995 -2.32 11.49 -3 12 C-4 10 -4 10 -3.22265625 7.6171875 C-2.83980469 6.71226562 -2.45695313 5.80734375 -2.0625 4.875 C-1.68222656 3.96492187 -1.30195313 3.05484375 -0.91015625 2.1171875 C-0.60980469 1.41851562 -0.30945313 0.71984375 0 0 Z " fill="#62D2BE" transform="translate(252,138)"/>
<path d="M0 0 C4.30764815 1.56641751 8.06171464 3.68336156 12 6 C10.375 6.6875 10.375 6.6875 8 7 C4.75 5.5625 4.75 5.5625 2 4 C2 3.34 2 2.68 2 2 C1.34 2 0.68 2 0 2 C0 1.34 0 0.68 0 0 Z " fill="#69D3C3" transform="translate(194,77)"/>
<path d="M0 0 C-1.15173355 2.46800047 -2.04783565 4.04783565 -4 6 C-7.125 6.125 -7.125 6.125 -10 6 C-7.35570758 3.077361 -4.105808 0 0 0 Z " fill="#6AD4C1" transform="translate(254,63)"/>
<path d="M0 0 C2.875 0.1875 2.875 0.1875 6 1 C7.375 3.5625 7.375 3.5625 8 6 C2.25 4.125 2.25 4.125 0 3 C0 2.01 0 1.02 0 0 Z " fill="#2CBFA3" transform="translate(323,12)"/>
<path d="M0 0 C-0.1875 1.875 -0.1875 1.875 -1 4 C-3.375 5.375 -3.375 5.375 -6 6 C-6.99 5.34 -7.98 4.68 -9 4 C-2.25 0 -2.25 0 0 0 Z " fill="#5DD4BE" transform="translate(93,65)"/>
<path d="M0 0 C1.32 0.33 2.64 0.66 4 1 C2.3811004 2.03048037 0.75467511 3.04914678 -0.875 4.0625 C-1.77992188 4.63097656 -2.68484375 5.19945313 -3.6171875 5.78515625 C-4.40351563 6.18605469 -5.18984375 6.58695312 -6 7 C-6.66 6.67 -7.32 6.34 -8 6 C-8 5.34 -8 4.68 -8 4 C-6.68 4 -5.36 4 -4 4 C-4 3.01 -4 2.02 -4 1 C-2.68 1.33 -1.36 1.66 0 2 C0 1.34 0 0.68 0 0 Z " fill="#68D3C1" transform="translate(258,74)"/>
<path d="M0 0 C-0.33 1.65 -0.66 3.3 -1 5 C-4.10551666 5 -5.35261084 4.4606285 -8 3 C-2.25 0 -2.25 0 0 0 Z " fill="#53CAB5" transform="translate(331,35)"/>
<path d="M0 0 C4.31392226 0.4793247 6.16569547 1.7457985 9 5 C6.03 4.505 6.03 4.505 3 4 C3 4.66 3 5.32 3 6 C1.68 5.34 0.36 4.68 -1 4 C-0.01 4 0.98 4 2 4 C2 3.01 2 2.02 2 1 C1.34 0.67 0.68 0.34 0 0 Z " fill="#76D7CA" transform="translate(320,8)"/>
<path d="M0 0 C0 2 0 2 -1.6875 4.1875 C-4 6 -4 6 -6.75 5.75 C-7.4925 5.5025 -8.235 5.255 -9 5 C-2.87096774 0 -2.87096774 0 0 0 Z " fill="#68D3C1" transform="translate(244,69)"/>
<path d="M0 0 C1.32 0 2.64 0 4 0 C4 0.66 4 1.32 4 2 C4.66 2 5.32 2 6 2 C7.35439668 4.70879335 7.06501451 7.00933268 7 10 C5.78483364 8.17725047 4.60668208 6.3280819 3.5 4.4375 C2.0902355 1.93582181 2.0902355 1.93582181 0 0 Z " fill="#7BD9CB" transform="translate(277,128)"/>
<path d="M0 0 C2.4375 0.375 2.4375 0.375 5 1 C5.33 1.66 5.66 2.32 6 3 C4.02 3.99 2.04 4.98 0 6 C0 4.02 0 2.04 0 0 Z " fill="#45CDB6" transform="translate(93,75)"/>
<path d="M0 0 C6.6 0 13.2 0 20 0 C20 0.33 20 0.66 20 1 C13.4 1 6.8 1 0 1 C0 0.67 0 0.34 0 0 Z " fill="#FFFFFF" transform="translate(51,128)"/>
<path d="M0 0 C1.60725635 3.21451269 1.05748185 6.43612536 1 10 C0.34 10 -0.32 10 -1 10 C-2.38125018 7.23749964 -2.19079306 5.05268901 -2 2 C-1.34 1.34 -0.68 0.68 0 0 Z " fill="#7ED7C7" transform="translate(49,90)"/>
<path d="M0 0 C2.62386487 3.06117568 3 3.73173127 3 8 C3.66 8 4.32 8 5 8 C5 8.99 5 9.98 5 11 C4.01 11 3.02 11 2 11 C0.80712589 7.12315913 0 4.08378077 0 0 Z " fill="#AFE6DF" transform="translate(302,148)"/>
<path d="M0 0 C0 0.66 0 1.32 0 2 C-2.70879335 3.35439668 -5.00933268 3.06501451 -8 3 C-5.53387212 -0.1151089 -3.89156016 -0.31553191 0 0 Z " fill="#4BCBB6" transform="translate(219,85)"/>
<path d="M0 0 C1.98 0 3.96 0 6 0 C6.33 1.32 6.66 2.64 7 4 C4.97954558 3.39816251 2.97888961 2.72693904 1 2 C0.67 1.34 0.34 0.68 0 0 Z " fill="#67D3C1" transform="translate(143,63)"/>
<path d="M0 0 C-0.625 1.9375 -0.625 1.9375 -2 4 C-5.125 4.75 -5.125 4.75 -8 5 C-3.16129032 0 -3.16129032 0 0 0 Z " fill="#76DACA" transform="translate(266,56)"/>
<path d="M0 0 C2.125 0.9375 2.125 0.9375 4 2 C2.1875 3.5625 2.1875 3.5625 0 5 C-0.99 4.67 -1.98 4.34 -3 4 C-2.67 3.01 -2.34 2.02 -2 1 C-1.34 0.67 -0.68 0.34 0 0 Z " fill="#48D1B9" transform="translate(273,51)"/>
<path d="M0 0 C1.32 0.33 2.64 0.66 4 1 C3.34 2.98 2.68 4.96 2 7 C0 5 0 5 -0.125 2.375 C-0.08375 1.59125 -0.0425 0.8075 0 0 Z " fill="#45C6B6" transform="translate(300,16)"/>
<path d="M0 0 C0.33 0.99 0.66 1.98 1 3 C-1.97 2.67 -4.94 2.34 -8 2 C-4.77208445 -0.1519437 -3.71599191 -0.20086443 0 0 Z " fill="#22BEA0" transform="translate(280,125)"/>
<path d="M0 0 C1.65 0.33 3.3 0.66 5 1 C3.35 2.32 1.7 3.64 0 5 C-0.66 4.67 -1.32 4.34 -2 4 C-1.34 2.68 -0.68 1.36 0 0 Z " fill="#60D2BF" transform="translate(75,87)"/>
<path d="M0 0 C4.95 0 9.9 0 15 0 C15 0.33 15 0.66 15 1 C10.05 1 5.1 1 0 1 C0 0.67 0 0.34 0 0 Z " fill="#FFFFFF" transform="translate(31,143)"/>
<path d="M0 0 C1.98 0.99 1.98 0.99 4 2 C3.01 2 2.02 2 1 2 C0.67 1.34 0.34 0.68 0 0 Z " fill="#FFFFFF" transform="translate(57,143)"/>
<path d="M0 0 C1.98 0.99 1.98 0.99 4 2 C3.01 2 2.02 2 1 2 C0.67 1.34 0.34 0.68 0 0 Z " fill="#FFFFFF" transform="translate(133,121)"/>
<path d="M0 0 C3 1 3 1 3 1 Z " fill="#FFFFFF" transform="translate(36,128)"/>
<path d="M0 0 C3 1 3 1 3 1 Z " fill="#FFFFFF" transform="translate(316,14)"/>
<path d="" fill="#FFFFFF" transform="translate(0,0)"/>
<path d="M0 0 C2 1 2 1 2 1 Z " fill="#FFFFFF" transform="translate(186,122)"/>
<path d="" fill="#FFFFFF" transform="translate(0,0)"/>
<path d="" fill="#FFFFFF" transform="translate(0,0)"/>
<path d="" fill="#FFFFFF" transform="translate(0,0)"/>
<path d="" fill="#FFFFFF" transform="translate(0,0)"/>
<path d="" fill="#FFFFFF" transform="translate(0,0)"/>
<path d="" fill="#FFFFFF" transform="translate(0,0)"/>
<path d="" fill="#FFFFFF" transform="translate(0,0)"/>
<path d="" fill="#FFFFFF" transform="translate(0,0)"/>
<path d="" fill="#FFFFFF" transform="translate(0,0)"/>
<path d="" fill="#FFFFFF" transform="translate(0,0)"/>
<path d="" fill="#FFFFFF" transform="translate(0,0)"/>
<path d="" fill="#FFFFFF" transform="translate(0,0)"/>
<path d="" fill="#FFFFFF" transform="translate(0,0)"/>
<path d="" fill="#FFFFFF" transform="translate(0,0)"/>
<path d="" fill="#FFFFFF" transform="translate(0,0)"/>
<path d="" fill="#FFFFFF" transform="translate(0,0)"/>
<path d="" fill="#FFFFFF" transform="translate(0,0)"/>
<path d="" fill="#FFFFFF" transform="translate(0,0)"/>
<path d="" fill="#FFFFFF" transform="translate(0,0)"/>
<path d="" fill="#FFFFFF" transform="translate(0,0)"/>
<path d="" fill="#FFFFFF" transform="translate(0,0)"/>
</svg>
